<svg width="35" height="35" viewBox="0 0 35 35" fill="none" xmlns="http://www.w3.org/2000/svg">
<g clip-path="url(#clip0_586_105)">
<g clip-path="url(#clip1_586_105)">
<g clip-path="url(#clip2_586_105)">
<mask id="mask0_586_105" style="mask-type:luminance" maskUnits="userSpaceOnUse" x="0" y="0" width="35" height="35">
<path d="M34.3 0H0V34.3H34.3V0Z" fill="white"/>
</mask>
<g mask="url(#mask0_586_105)">
<path d="M26.7766 17.5044C26.708 17.3787 26.5937 17.2872 26.4679 17.2186C26.3421 17.15 26.2049 17.1157 26.0563 17.1157H26.022C25.8619 17.1157 25.7019 17.1614 25.5761 17.2529C25.4389 17.3329 25.336 17.4587 25.2788 17.6073C24.8672 18.4877 24.2041 19.2423 23.3809 19.7568C22.5577 20.2827 21.5973 20.5571 20.6255 20.5571C19.6536 20.5571 18.6932 20.2827 17.87 19.7568C17.0468 19.2423 16.3951 18.4877 15.9721 17.6073C15.9035 17.4701 15.7892 17.3444 15.652 17.2529C15.5148 17.1729 15.3547 17.1157 15.1946 17.1157C15.0574 17.1157 14.9088 17.15 14.783 17.2186C14.6573 17.2872 14.5544 17.3787 14.4743 17.5044C14.3943 17.6188 14.3486 17.756 14.3371 17.9046C14.3371 18.0418 14.36 18.1904 14.4172 18.3162C14.9774 19.4938 15.8463 20.4885 16.9554 21.186C18.053 21.8834 19.3221 22.2607 20.6255 22.2607C21.9289 22.2721 23.2094 21.8948 24.307 21.1974C25.416 20.5 26.285 19.5053 26.8452 18.3162C26.9024 18.1904 26.9252 18.0418 26.9138 17.9046C26.9138 17.756 26.8566 17.6188 26.7766 17.5044ZM26.9481 10.7931C26.628 10.4729 26.1935 10.3014 25.7362 10.3014C25.2788 10.3014 24.8558 10.4729 24.5357 10.7931C24.2155 11.1132 24.0326 11.5477 24.0326 12.005C24.0326 12.2222 24.0783 12.4509 24.1698 12.6567C24.2498 12.8625 24.3756 13.0454 24.5357 13.2055C24.6957 13.3656 24.8787 13.4913 25.0845 13.5714C25.2903 13.6628 25.5189 13.7086 25.7362 13.7086C25.9648 13.7086 26.1821 13.6628 26.3879 13.5714C26.5937 13.4913 26.788 13.3656 26.9481 13.2055C27.1082 13.0454 27.2339 12.8625 27.314 12.6567C27.394 12.4509 27.4397 12.2222 27.4397 12.005C27.4397 11.5477 27.2682 11.1132 26.9481 10.7931ZM16.6467 10.7931C16.3265 10.4729 15.8921 10.3014 15.4462 10.3014C15.0003 10.3014 14.5544 10.4729 14.2457 10.7931C13.9255 11.1132 13.7426 11.5477 13.7426 12.005C13.7426 12.2222 13.7883 12.4509 13.8684 12.6567C13.9598 12.8625 14.0856 13.0454 14.2457 13.2055C14.3943 13.3656 14.5887 13.4913 14.7945 13.5714C15.0003 13.6628 15.2175 13.7086 15.4462 13.7086C15.6748 13.7086 15.8921 13.6628 16.0979 13.5714C16.3037 13.4913 16.4866 13.3656 16.6467 13.2055C16.8067 13.0454 16.9325 12.8625 17.0125 12.6567C17.104 12.4509 17.1497 12.2222 17.1497 12.005C17.1497 11.5477 16.9668 11.1132 16.6467 10.7931ZM26.9481 10.7931C26.628 10.4729 26.1935 10.3014 25.7362 10.3014C25.2788 10.3014 24.8558 10.4729 24.5357 10.7931C24.2155 11.1132 24.0326 11.5477 24.0326 12.005C24.0326 12.2222 24.0783 12.4509 24.1698 12.6567C24.2498 12.8625 24.3756 13.0454 24.5357 13.2055C24.6957 13.3656 24.8787 13.4913 25.0845 13.5714C25.2903 13.6628 25.5189 13.7086 25.7362 13.7086C25.9648 13.7086 26.1821 13.6628 26.3879 13.5714C26.5937 13.4913 26.788 13.3656 26.9481 13.2055C27.1082 13.0454 27.2339 12.8625 27.314 12.6567C27.394 12.4509 27.4397 12.2222 27.4397 12.005C27.4397 11.5477 27.2682 11.1132 26.9481 10.7931ZM26.4679 17.2186C26.3421 17.15 26.2049 17.1157 26.0563 17.1157H26.022C25.8619 17.1157 25.7019 17.1614 25.5761 17.2529C25.4389 17.3329 25.336 17.4587 25.2788 17.6073C24.8672 18.4877 24.2041 19.2423 23.3809 19.7568C22.5577 20.2827 21.5973 20.5571 20.6255 20.5571C19.6536 20.5571 18.6932 20.2827 17.87 19.7568C17.0468 19.2423 16.3951 18.4877 15.9721 17.6073C15.9035 17.4701 15.7892 17.3444 15.652 17.2529C15.5148 17.1729 15.3547 17.1157 15.1946 17.1157C15.0574 17.1157 14.9088 17.15 14.783 17.2186C14.6573 17.2872 14.5544 17.3787 14.4743 17.5044C14.3943 17.6188 14.3486 17.756 14.3371 17.9046C14.3371 18.0418 14.36 18.1904 14.4172 18.3162C14.9774 19.4938 15.8463 20.4885 16.9554 21.186C18.053 21.8834 19.3221 22.2607 20.6255 22.2607C21.9289 22.2721 23.2094 21.8948 24.307 21.1974C25.416 20.5 26.285 19.5053 26.8452 18.3162C26.9024 18.1904 26.9252 18.0418 26.9138 17.9046C26.9138 17.756 26.8566 17.6188 26.7766 17.5044C26.708 17.3787 26.5937 17.2872 26.4679 17.2186ZM15.4462 13.7086C15.6634 13.7086 15.8921 13.6628 16.0979 13.5714C16.3037 13.4913 16.4866 13.3656 16.6467 13.2055C16.8067 13.0454 16.9325 12.8625 17.0125 12.6567C17.104 12.4509 17.1497 12.2222 17.1497 12.005C17.1497 11.5477 16.9668 11.1132 16.6467 10.7931C16.3265 10.4729 15.8921 10.3014 15.4462 10.3014C15.0003 10.3014 14.5544 10.4729 14.2457 10.7931C13.9255 11.1132 13.7426 11.5477 13.7426 12.005C13.7426 12.2222 13.7883 12.4509 13.8684 12.6567C13.9598 12.8625 14.0856 13.0454 14.2457 13.2055C14.3943 13.3656 14.5887 13.4913 14.7945 13.5714C15.0003 13.6628 15.2175 13.7086 15.4462 13.7086ZM29.7836 4.51617C26.8795 1.63497 22.9693 0.0228667 18.8876 0C14.1656 0 9.76384 2.13803 6.74544 5.9339C4.58454 8.66647 3.4412 12.0393 3.4412 15.515V17.9961C3.4412 19.2766 2.56084 20.4885 0.78867 20.5914C0.354204 20.6257 -0.000229919 20.9116 -0.000229919 21.3346C-0.0688299 22.5122 1.1774 24.6388 2.88097 26.3424C4.04717 27.5543 5.4306 28.5033 6.92837 29.2579C6.81404 29.8753 6.8369 30.5041 7.0084 31.1101C7.16847 31.7161 7.4543 32.2763 7.85447 32.7565C8.26607 33.2367 8.76914 33.6254 9.32937 33.8884C9.90104 34.1628 10.5184 34.3 11.1473 34.3C12.1305 34.3 13.0909 33.9684 13.8569 33.3396C14.623 32.7222 15.1489 31.8533 15.3433 30.8814H18.9219C19.3907 33.3053 21.906 34.9631 24.6043 34.0485C26.9481 33.2596 27.9771 30.607 27.1196 28.4347C28.0571 27.8173 28.9375 27.1199 29.7493 26.3424C31.1899 24.9132 32.3446 23.2097 33.1221 21.3346C33.8996 19.4595 34.2997 17.4473 34.2997 15.4121C34.2997 11.2961 32.6991 7.42023 29.7836 4.51617ZM31.5557 20.6943C30.8697 22.3522 29.8522 23.8614 28.5831 25.1305C26.0106 27.6915 22.5234 29.1436 18.8876 29.1436H15.3776C15.1832 28.1832 14.6573 27.3028 13.8912 26.6854C13.1252 26.0566 12.1762 25.7136 11.193 25.7021C10.4727 25.7021 9.76384 25.8851 9.135 26.2166C8.49474 26.5596 7.95737 27.0513 7.56864 27.6572V27.6915C6.2881 27.0398 5.1219 26.1709 4.1272 25.1305C2.91527 23.93 2.2407 22.8324 1.95487 22.1235C2.74377 21.9291 3.46407 21.5061 4.01287 20.9116C4.75604 20.1227 5.1562 19.0822 5.1562 17.9961V15.4464C5.1562 12.428 6.1509 9.44393 8.02597 7.0658C10.6899 3.65867 14.6344 1.73787 18.8876 1.73787C22.5463 1.73787 25.9877 3.16703 28.5831 5.75097C29.8522 7.02007 30.8697 8.52927 31.5557 10.1985C32.2417 11.8564 32.5962 13.64 32.5847 15.4464C32.5847 17.2415 32.2417 19.0251 31.5557 20.6943ZM25.7362 10.3014C25.2903 10.3014 24.8558 10.4729 24.5357 10.7931C24.2155 11.1132 24.0326 11.5477 24.0326 12.005C24.0326 12.2222 24.0783 12.4509 24.1698 12.6567C24.2498 12.8625 24.3756 13.0454 24.5357 13.2055C24.6957 13.3656 24.8787 13.4913 25.0845 13.5714C25.2903 13.6628 25.5189 13.7086 25.7362 13.7086C25.9648 13.7086 26.1821 13.6628 26.3879 13.5714C26.5937 13.4913 26.788 13.3656 26.9481 13.2055C27.1082 13.0454 27.2339 12.8625 27.314 12.6567C27.394 12.4509 27.4397 12.2222 27.4397 12.005C27.4397 11.5477 27.2682 11.1132 26.9481 10.7931C26.628 10.4729 26.1935 10.3014 25.7362 10.3014ZM26.4679 17.2186C26.3421 17.15 26.2049 17.1157 26.0563 17.1157H26.022C25.8619 17.1157 25.7019 17.1614 25.5761 17.2529C25.4389 17.3329 25.336 17.4587 25.2788 17.6073C24.8672 18.4877 24.2041 19.2423 23.3809 19.7568C22.5577 20.2827 21.5973 20.5571 20.6255 20.5571C19.6536 20.5571 18.6932 20.2827 17.87 19.7568C17.0468 19.2423 16.3951 18.4877 15.9721 17.6073C15.9035 17.4701 15.7892 17.3444 15.652 17.2529C15.5148 17.1729 15.3547 17.1157 15.1946 17.1157C15.0574 17.1157 14.9088 17.15 14.783 17.2186C14.6573 17.2872 14.5544 17.3787 14.4743 17.5044C14.3943 17.6188 14.3486 17.756 14.3371 17.9046C14.3371 18.0418 14.36 18.1904 14.4172 18.3162C14.9774 19.4938 15.8463 20.4885 16.9554 21.186C18.053 21.8834 19.3221 22.2607 20.6255 22.2607C21.9289 22.2721 23.2094 21.8948 24.307 21.1974C25.416 20.5 26.285 19.5053 26.8452 18.3162C26.9024 18.1904 26.9252 18.0418 26.9138 17.9046C26.9138 17.756 26.8566 17.6188 26.7766 17.5044C26.708 17.3787 26.5937 17.2872 26.4679 17.2186ZM15.4462 13.7086C15.6634 13.7086 15.8921 13.6628 16.0979 13.5714C16.3037 13.4913 16.4866 13.3656 16.6467 13.2055C16.8067 13.0454 16.9325 12.8625 17.0125 12.6567C17.104 12.4509 17.1497 12.2222 17.1497 12.005C17.1497 11.5477 16.9668 11.1132 16.6467 10.7931C16.3265 10.4729 15.8921 10.3014 15.4462 10.3014C15.0003 10.3014 14.5544 10.4729 14.2457 10.7931C13.9255 11.1132 13.7426 11.5477 13.7426 12.005C13.7426 12.2222 13.7883 12.4509 13.8684 12.6567C13.9598 12.8625 14.0856 13.0454 14.2457 13.2055C14.3943 13.3656 14.5887 13.4913 14.7945 13.5714C15.0003 13.6628 15.2175 13.7086 15.4462 13.7086Z" fill="black"/>
<path d="M31.556 10.1986C30.87 8.52931 29.8525 7.02012 28.5834 5.75102C25.988 3.16708 22.5466 1.73792 18.8879 1.73792C14.6347 1.73792 10.6901 3.65871 8.02618 7.06585C6.15111 9.44398 5.15641 12.4281 5.15641 15.4465V17.9961C5.15641 19.0823 4.75624 20.1227 4.01308 20.9116C3.46428 21.5061 2.74398 21.9292 1.95508 22.1235C2.24091 22.8324 2.91548 23.93 4.12741 25.1305C5.12211 26.1709 6.28831 27.0399 7.56884 27.6916V27.6573C7.95758 27.0513 8.49495 26.5597 9.13521 26.2167C9.76404 25.8851 10.4729 25.7022 11.1932 25.7022C12.1765 25.7136 13.1255 26.0566 13.8915 26.6854C14.6576 27.3028 15.1835 28.1832 15.3779 29.1436H18.8879C22.5237 29.1436 26.0109 27.6916 28.5834 25.1305C29.8525 23.8614 30.87 22.3522 31.556 20.6944C32.242 19.0251 32.5965 17.2415 32.585 15.4465C32.585 13.64 32.242 11.8564 31.556 10.1986ZM13.8687 12.6567C13.7886 12.4509 13.7429 12.2223 13.7429 12.005C13.7429 11.5477 13.9258 11.1132 14.246 10.7931C14.5547 10.473 14.9891 10.3015 15.4465 10.3015C15.9038 10.3015 16.3268 10.473 16.647 10.7931C16.9671 11.1132 17.15 11.5477 17.15 12.005C17.15 12.2223 17.1043 12.4509 17.0128 12.6567C16.9328 12.8625 16.807 13.0455 16.647 13.2055C16.4869 13.3656 16.304 13.4914 16.0982 13.5714C15.8924 13.6629 15.6637 13.7086 15.4465 13.7086C15.2178 13.7086 15.0006 13.6629 14.7948 13.5714C14.589 13.4914 14.3946 13.3656 14.246 13.2055C14.0859 13.0455 13.9601 12.8625 13.8687 12.6567ZM26.8455 18.3162C26.2853 19.5053 25.4163 20.5 24.3073 21.1974C23.2097 21.8949 21.9292 22.2722 20.6258 22.2607C19.3224 22.2607 18.0533 21.8834 16.9557 21.186C15.8466 20.4886 14.9777 19.4939 14.4175 18.3162C14.3603 18.1905 14.326 18.0418 14.3374 17.9046C14.3489 17.756 14.3946 17.6188 14.4746 17.5045C14.5547 17.3787 14.6576 17.2872 14.7833 17.2186C14.9091 17.15 15.0577 17.1157 15.1949 17.1157C15.355 17.1157 15.5151 17.1729 15.6523 17.2529C15.7895 17.3444 15.9038 17.4702 15.9724 17.6074C16.3954 18.4877 17.0471 19.2423 17.8703 19.7568C18.6935 20.2828 19.6539 20.5572 20.6258 20.5572C21.5976 20.5572 22.558 20.2828 23.3812 19.7568C24.2044 19.2423 24.8675 18.4877 25.2791 17.6074C25.3363 17.4587 25.4392 17.333 25.5764 17.2529C25.7022 17.1615 25.8622 17.1157 26.0223 17.1157H26.0566C26.2052 17.1157 26.3424 17.15 26.4682 17.2186C26.594 17.2872 26.7083 17.3787 26.7769 17.5045C26.8569 17.6188 26.9027 17.756 26.9141 17.9046C26.9255 18.0418 26.9141 18.1905 26.8455 18.3162ZM27.3143 12.6567C27.2342 12.8625 27.1085 13.0455 26.9484 13.2055C26.7883 13.3656 26.594 13.4914 26.3882 13.5714C26.1824 13.6629 25.9651 13.7086 25.7365 13.7086C25.5078 13.7086 25.2906 13.6629 25.0848 13.5714C24.879 13.4914 24.696 13.3656 24.536 13.2055C24.3759 13.0455 24.2501 12.8625 24.1701 12.6567C24.0786 12.4509 24.0329 12.2223 24.0329 12.005C24.0329 11.5477 24.2158 11.1132 24.536 10.7931C24.8561 10.473 25.2906 10.3015 25.7365 10.3015C26.1824 10.3015 26.6283 10.473 26.9484 10.7931C27.2685 11.1132 27.44 11.5477 27.44 12.005C27.44 12.2223 27.3943 12.4509 27.3143 12.6567Z" fill="white"/>
</g>
</g>
</g>
</g>
<defs>
<clipPath id="clip0_586_105">
<rect width="34.3" height="34.3" fill="white"/>
</clipPath>
<clipPath id="clip1_586_105">
<rect width="34.3" height="34.3" fill="white"/>
</clipPath>
<clipPath id="clip2_586_105">
<rect width="34.3" height="34.3" fill="white"/>
</clipPath>
</defs>
</svg>
