<svg width="24" height="24" viewBox="0 0 24 24" fill="none" xmlns="http://www.w3.org/2000/svg">
<g clip-path="url(#clip0_259_4599)">
<g clip-path="url(#clip1_259_4599)">
<g clip-path="url(#clip2_259_4599)">
<path d="M12.0712 0C5.80384 0 0.72642 5.07742 0.72642 11.3448C0.72642 14.4569 2.37403 17.2353 2.37403 17.2353L0.387207 23.2764L6.60072 21.2896C6.60072 21.2896 8.91061 22.6896 12.0658 22.6896C18.3332 22.6896 23.4106 17.6121 23.4106 11.3448C23.416 5.07742 18.3332 0 12.0712 0ZM12.0712 20.875C9.15286 20.875 6.82148 19.2975 6.82148 19.2975L3.2409 20.4658L4.40392 16.9983C4.40392 16.9983 2.54632 14.43 2.54632 11.3448C2.54632 6.08429 6.81071 1.81452 12.0766 1.81452C17.3371 1.81452 21.6068 6.07891 21.6068 11.3448C21.5961 16.6053 17.3317 20.875 12.0712 20.875Z" fill="white"/>
<path d="M7.74749 6.40734C7.74749 6.40734 8.05439 6.2135 8.21595 6.2135C8.37744 6.2135 9.10975 6.2135 9.10975 6.2135C9.10975 6.2135 9.352 6.25658 9.45969 6.50425C9.56738 6.75193 10.3212 8.52334 10.3804 8.66339C10.4342 8.79795 10.5851 9.1372 10.3482 9.43875C10.1112 9.74022 9.62126 10.3056 9.62126 10.3056C9.62126 10.3056 9.4274 10.4779 9.59432 10.7579C9.76124 11.0378 10.3535 11.9532 11.1288 12.6478C11.9042 13.3424 12.8518 13.8539 13.3256 14.01C13.7995 14.1661 13.9018 13.9562 14.0849 13.7246C14.2679 13.4931 14.8279 12.777 14.8279 12.777C14.8279 12.777 15.0217 12.4916 15.404 12.6693C15.7863 12.8416 17.6439 13.7462 17.6439 13.7462C17.6439 13.7462 17.8701 13.7838 17.8808 14.0369C17.8916 14.29 18.0477 15.0438 17.3747 15.7707C16.7016 16.4975 15.2694 16.8368 14.591 16.6429C13.9125 16.4545 11.6673 15.8676 10.2081 14.5C8.74898 13.1323 7.55903 11.7002 7.07445 10.6394C6.58986 9.57872 6.61678 8.9541 6.6437 8.65797C6.67062 8.36184 6.83215 6.99423 7.74749 6.40734Z" fill="white"/>
</g>
</g>
</g>
<defs>
<clipPath id="clip0_259_4599">
<rect width="24" height="24" fill="white"/>
</clipPath>
<clipPath id="clip1_259_4599">
<rect width="24" height="24" fill="white"/>
</clipPath>
<clipPath id="clip2_259_4599">
<rect width="23.2258" height="24" fill="white" transform="translate(0.387207)"/>
</clipPath>
</defs>
</svg>
