<svg width="330" height="133" viewBox="0 0 330 133" fill="none" xmlns="http://www.w3.org/2000/svg">
<g clip-path="url(#clip0_16427_820)">
<path fill-rule="evenodd" clip-rule="evenodd" d="M326.884 28.4507C327.8 28.4507 328.533 28.7543 329.053 29.392C329.572 30.0297 329.847 30.7888 329.847 31.6694C329.847 32.55 329.572 33.2788 328.992 33.8861C328.442 34.4934 327.709 34.797 326.792 34.797C325.876 34.797 325.142 34.4934 324.593 33.9468C324.073 33.3699 323.768 32.6107 323.707 31.6694C323.707 30.7888 323.982 29.9993 324.562 29.392C325.142 28.7847 325.906 28.481 326.884 28.481V28.4507Z" fill="white"/>
<path fill-rule="evenodd" clip-rule="evenodd" d="M273.727 28.4507C274.644 28.4507 275.377 28.7543 275.896 29.392C276.416 30.0297 276.66 30.7888 276.66 31.6694C276.66 32.55 276.385 33.2788 275.805 33.8861C275.255 34.4934 274.521 34.797 273.605 34.797C272.688 34.797 271.925 34.4934 271.405 33.9468C270.886 33.3699 270.581 32.6107 270.519 31.6694C270.519 30.7888 270.794 29.9993 271.375 29.392C271.955 28.7847 272.719 28.481 273.697 28.481L273.727 28.4507Z" fill="white"/>
<path fill-rule="evenodd" clip-rule="evenodd" d="M242.872 9.62607C242.872 8.1078 243.269 6.65027 244.124 5.2231C244.949 3.79593 246.141 2.64205 247.729 1.76146C249.287 0.850499 251.12 0.39502 253.198 0.39502C253.961 0.39502 255.061 0.45575 256.436 0.577211C257.841 0.698673 258.758 0.759403 259.216 0.789768C260.652 0.668307 261.69 0.546846 262.363 0.39502C262.424 1.42744 262.485 2.39913 262.576 3.31009C262.668 4.22105 262.821 5.34456 262.974 6.68064C263.126 8.01671 263.279 9.14022 263.401 10.0815L262.729 10.2941C261.782 8.16854 260.835 6.46808 259.919 5.16237C258.972 3.85666 257.963 2.88497 256.925 2.27767C255.886 1.64 254.725 1.24525 253.473 1.12379C252.464 1.12379 251.426 1.36671 250.418 1.79182C249.409 2.2473 248.554 2.91534 247.912 3.7352C247.24 4.58543 246.904 5.55712 246.874 6.65027C246.996 7.86488 247.393 8.92767 248.065 9.80826C248.707 10.6889 249.532 11.3873 250.509 11.9642C251.487 12.5411 252.617 13.0573 253.9 13.4825C255.183 13.9379 256.283 14.3023 257.169 14.606C262.24 16.4583 264.776 19.6466 264.776 24.171C264.776 25.9019 264.47 27.4809 263.829 28.908C263.187 30.3352 262.271 31.5802 261.079 32.5822C259.888 33.6147 258.422 34.4042 256.741 34.9507C255.031 35.4973 253.136 35.801 251.09 35.801C249.654 35.801 248.279 35.6795 246.965 35.4669C245.652 35.2544 244.094 34.89 242.352 34.4345L241.253 23.1386L242.2 23.0475C242.688 24.8391 243.422 26.6306 244.43 28.4829C245.438 30.3048 246.721 31.8838 248.187 33.1288C249.684 34.4041 251.273 35.0722 252.984 35.1329C254.45 35.0722 255.794 34.6774 256.955 33.9487C258.116 33.2199 259.033 32.2178 259.674 30.9729C260.316 29.7279 260.652 28.3311 260.652 26.8128C260.652 25.2946 260.163 23.9585 259.246 22.9261C258.299 21.8633 256.741 20.9523 254.542 20.1932C251.884 19.1304 250.112 18.432 249.257 18.0676C248.401 17.7032 247.424 17.1567 246.385 16.4279C245.346 15.6991 244.491 14.7882 243.88 13.695C243.269 12.6019 242.933 11.2658 242.872 9.71717V9.62607Z" fill="white"/>
<path fill-rule="evenodd" clip-rule="evenodd" d="M152.444 1.4571V0.789062H167.352V1.4571C165.794 1.4571 164.633 1.63929 163.839 2.00367C162.739 2.58061 162.189 3.7345 162.189 5.49568V30.0308C162.22 31.2151 162.434 32.126 162.77 32.7637C163.106 33.4318 163.656 33.8872 164.358 34.1605C165.061 34.4338 166.008 34.5856 167.2 34.5856C168.758 34.4642 170.56 34.0087 172.638 33.2192C174.715 32.4297 176.792 31.2758 178.87 29.7879C180.947 28.3 182.811 26.4477 184.399 24.3525L185.102 24.6562C183.666 28.5429 182.688 32.126 182.169 35.4055H152.139V34.616C153.147 34.5553 154.094 34.1909 155.01 33.4925C155.927 32.7941 156.416 31.8528 156.416 30.6989V5.58678C156.416 4.31144 156.079 3.37011 155.407 2.76281C154.735 2.12514 153.758 1.70002 152.536 1.4571H152.444Z" fill="white"/>
<path fill-rule="evenodd" clip-rule="evenodd" d="M111.813 1.4571V0.789062H126.996V1.4571H125.621C124.491 1.4571 123.636 1.82148 123.055 2.48952C122.475 3.18792 122.2 3.91669 122.2 4.67582V25.2028C122.2 26.2655 122.566 27.4802 123.299 28.8162C124.033 30.1827 125.132 31.3669 126.568 32.369C128.004 33.371 129.746 33.9176 131.731 34.0087C133.625 34.0087 135.397 33.4925 137.047 32.4904C138.697 31.4884 140.041 29.9701 141.049 27.966C142.057 25.9619 142.576 23.5327 142.576 20.7391V8.04637C142.576 7.49979 142.24 6.67993 141.538 5.58678C140.835 4.49363 139.919 3.52194 138.788 2.70208C137.658 1.88221 136.405 1.4571 135.061 1.4571H134.389V0.789062H149.511V1.4571C148.228 1.48746 147.098 1.94294 146.151 2.82354C145.204 3.70413 144.471 4.67582 143.951 5.73861C143.432 6.80139 143.187 7.59089 143.187 8.04637V21.1945C143.187 23.7149 142.729 26.053 141.813 28.2697C140.896 30.456 139.399 32.2475 137.322 33.6443C135.244 35.0411 132.587 35.7395 129.379 35.7699C127.699 35.7699 126.049 35.4359 124.46 34.7982C122.872 34.1605 121.466 33.2192 120.275 32.0046C119.053 30.8203 118.106 29.3628 117.403 27.6927C116.701 26.0226 116.365 24.2311 116.365 22.2877V4.09888C116.365 3.5523 115.968 2.97536 115.173 2.36806C114.379 1.76075 113.432 1.4571 112.363 1.4571H111.782H111.813Z" fill="white"/>
<path fill-rule="evenodd" clip-rule="evenodd" d="M38.0345 1.4571V0.789062H53.2178V1.4571H51.8431C50.7128 1.4571 49.8574 1.82148 49.2769 2.48952C48.727 3.18792 48.4215 3.91669 48.4215 4.67582V25.2028C48.4215 26.2655 48.7881 27.4802 49.5213 28.8162C50.2545 30.1827 51.3543 31.3669 52.7901 32.369C54.226 33.371 55.9673 33.9176 57.9531 34.0087C59.8472 34.0087 61.6191 33.4925 63.2688 32.4904C64.9185 31.4884 66.2627 29.9701 67.2708 27.966C68.2789 25.9619 68.7983 23.5327 68.7983 20.7391V8.04637C68.7983 7.49979 68.4622 6.67993 67.7596 5.58678C67.057 4.49363 66.171 3.52194 65.0407 2.70208C63.9103 1.88221 62.6578 1.4571 61.3136 1.4571H60.6415V0.789062H75.7637V1.4571C74.4806 1.48746 73.3502 1.94294 72.4032 2.82354C71.4561 3.70413 70.7229 4.67582 70.2036 5.73861C69.6842 6.80139 69.4398 7.59089 69.4398 8.04637V21.1945C69.4398 23.7149 68.9816 26.053 68.0651 28.2697C67.1486 30.456 65.6517 32.2475 63.5743 33.6443C61.4969 35.0411 58.8696 35.7395 55.6313 35.7699C53.9205 35.7699 52.3013 35.4359 50.7128 34.7982C49.1242 34.1605 47.7189 33.2192 46.5274 32.0046C45.3054 30.8203 44.3584 29.3628 43.6557 27.6927C42.9531 26.0226 42.617 24.2311 42.617 22.2877V4.09888C42.617 3.5523 42.2199 2.97536 41.4256 2.36806C40.6313 1.76075 39.6842 1.4571 38.615 1.4571H38.0345Z" fill="white"/>
<path fill-rule="evenodd" clip-rule="evenodd" d="M31.0387 0.0898438C31.0692 1.6992 31.1609 3.12637 31.2525 4.34099C31.3747 5.5556 31.558 6.77021 31.833 8.01519C32.1079 9.26017 32.4745 10.5051 32.9939 11.7198L32.4745 11.8716C31.7413 10.5051 30.6721 8.98688 29.2973 7.37752C27.9226 5.76816 26.1812 4.34099 24.0122 3.06564C21.8432 1.7903 19.4297 1.12226 16.7719 1.06153C13.6558 1.06153 11.0896 2.21542 9.1344 4.55354C7.17921 6.86131 6.17106 11.0821 6.14051 17.1551C6.20161 17.3373 6.23216 17.5803 6.23216 17.8535C6.23216 19.7969 6.44601 21.7099 6.84316 23.5622C7.24031 25.4145 7.88186 27.1757 8.7678 28.8154C9.6843 30.4551 10.9063 31.8216 12.4949 32.8844C14.0529 33.9472 16.0081 34.5848 18.2994 34.767C19.6436 34.767 21.0183 34.5545 22.4236 34.1597C23.8289 33.765 25.2036 33.188 26.4867 32.4289C27.7698 31.6698 28.9613 30.7284 30.0611 29.6353C31.1609 28.5421 32.0468 27.2668 32.7189 25.87L33.391 26.1129C31.8635 28.8458 29.7861 31.1232 27.1283 32.9451C24.4705 34.767 21.1711 35.678 17.2301 35.7387C13.9613 35.7387 11.059 34.8277 8.46231 33.0969C5.89611 31.3661 3.87982 29.1191 2.44397 26.3862C1.00813 23.6533 0.305481 20.8293 0.305481 17.975C0.305481 16.0013 0.70263 13.9668 1.46638 11.9019C2.23012 9.83711 3.39102 7.89373 4.88797 6.1629C6.38491 4.40172 8.21791 3.00491 10.3258 1.94213C12.4338 0.879342 14.8167 0.363131 17.444 0.363131C18.5438 0.363131 19.8574 0.484593 21.3849 0.69715C22.9124 0.909707 24.0733 1.03117 24.837 1.06153C26.945 0.940072 29.0224 0.636419 31.0692 0.0898438H31.0387Z" fill="white"/>
<path fill-rule="evenodd" clip-rule="evenodd" d="M14.4196 76.9462H11.3035L10.051 73.6668H4.36869L3.20779 76.9462H0.18335L5.71288 62.5531H8.73732L14.4196 76.9462ZM9.13447 71.2679L7.17928 65.9236L5.25463 71.2679H9.13447ZM15.9471 76.9462V62.5531H21.996C23.5235 62.5531 24.6233 62.6745 25.2954 62.9478C25.9675 63.1907 26.5479 63.6766 26.9451 64.3143C27.3728 64.9823 27.5561 65.7414 27.5561 66.5917C27.5561 67.6544 27.2506 68.5654 26.609 69.2638C25.9675 69.9622 25.051 70.4177 23.7984 70.5999C24.4094 70.9643 24.9288 71.359 25.3259 71.8145C25.7231 72.2396 26.273 73.0291 26.9451 74.1526L28.6864 76.9462H25.2648L23.1874 73.8186C22.4542 72.6951 21.9349 71.9967 21.6599 71.693C21.385 71.3894 21.11 71.2072 20.8045 71.0857C20.499 70.9643 20.0102 70.9339 19.3687 70.9339H18.7882V76.9462H15.9165H15.9471ZM18.8188 68.6565H20.9267C22.3015 68.6565 23.1569 68.5958 23.4929 68.4743C23.829 68.3528 24.1039 68.1403 24.2872 67.867C24.4705 67.5937 24.5927 67.2293 24.5927 66.8042C24.5927 66.3184 24.4705 65.9236 24.2261 65.62C23.9817 65.3163 23.6151 65.1341 23.1569 65.043C22.9125 65.043 22.2404 64.9823 21.0489 64.9823H18.8188V68.6261V68.6565ZM41.7007 75.1243C42.4033 75.6405 43.1671 76.0353 43.9919 76.3389L42.9227 78.4038C42.495 78.2823 42.0673 78.1001 41.6396 77.8572C41.5479 77.7964 40.9064 77.3713 39.7455 76.5818C38.7984 77.007 37.7903 77.1891 36.6599 77.1891C34.4909 77.1891 32.7801 76.5515 31.5275 75.2458C30.3055 73.9401 29.664 72.1181 29.664 69.7496C29.664 67.3812 30.275 65.5592 31.5275 64.2535C32.7801 62.9478 34.4603 62.3102 36.5683 62.3102C38.6762 62.3102 40.3565 62.9478 41.5785 64.2535C42.831 65.5592 43.442 67.3812 43.442 69.7496C43.442 70.9946 43.2587 72.0878 42.9227 73.0291C42.6477 73.7579 42.2506 74.4563 41.6701 75.1243H41.7007ZM39.3789 73.4846C39.7455 73.0595 40.0204 72.5129 40.2037 71.9056C40.387 71.2983 40.4787 70.5695 40.4787 69.78C40.4787 68.1099 40.1121 66.8649 39.3789 66.0451C38.6457 65.2252 37.6986 64.8001 36.5377 64.8001C35.3768 64.8001 34.4298 65.2252 33.6966 66.0451C32.9634 66.8649 32.5968 68.1099 32.5968 69.78C32.5968 71.4501 32.9634 72.7254 33.6966 73.5453C34.4298 74.3652 35.3463 74.7903 36.4461 74.7903C36.8738 74.7903 37.2404 74.7296 37.6375 74.5777C37.0571 74.183 36.4461 73.8793 35.8656 73.6668L36.6599 71.9967C37.607 72.3307 38.4929 72.8165 39.3789 73.4846ZM45.6721 62.5531H48.5438V70.357C48.5438 71.6019 48.5744 72.3914 48.6355 72.7558C48.7577 73.3328 49.0632 73.8186 49.5214 74.183C49.9797 74.5474 50.6212 74.7296 51.4155 74.7296C52.2098 74.7296 52.8514 74.5474 53.2485 74.2133C53.6762 73.8793 53.9206 73.4542 53.9817 72.9684C54.0734 72.4825 54.1039 71.6627 54.1039 70.5088V62.5531H56.9756V70.114C56.9756 71.8449 56.884 73.0595 56.7312 73.7882C56.5785 74.517 56.3035 75.0939 55.8758 75.6101C55.4481 76.096 54.8982 76.4907 54.1956 76.7944C53.4929 77.0981 52.5764 77.2195 51.4461 77.2195C50.1019 77.2195 49.0632 77.0677 48.3605 76.7337C47.6579 76.43 47.108 76.0049 46.7108 75.4887C46.3137 74.9725 46.0387 74.4563 45.9165 73.8793C45.7332 73.0595 45.6416 71.8449 45.6416 70.2355V62.5531H45.6721ZM59.939 76.9462V62.5531H62.8106V76.9462H59.939ZM68.7373 76.9462V64.9823H64.5214V62.5531H75.8249V64.9823H71.609V76.9462H68.7373ZM77.6579 76.9462V62.5531H88.1976V64.9823H80.5296V68.1707H87.6477V70.5999H80.5296V74.517H88.4726V76.9462H77.6579ZM99.9899 71.6627L102.77 72.5433C102.342 74.1222 101.64 75.2761 100.631 76.0353C99.6538 76.7944 98.3707 77.1891 96.8432 77.1891C94.9491 77.1891 93.3911 76.5211 92.1997 75.2458C90.9777 73.9401 90.3667 72.1485 90.3667 69.9015C90.3667 67.5026 90.9777 65.6503 92.1997 64.3143C93.4216 62.9782 95.0102 62.3405 97.0265 62.3405C98.7679 62.3405 100.173 62.8567 101.273 63.8891C101.915 64.4965 102.403 65.377 102.739 66.5309L99.8982 67.2293C99.7455 66.4702 99.3789 65.8933 98.8595 65.4681C98.3402 65.043 97.6681 64.8305 96.9043 64.8305C95.8656 64.8305 94.9797 65.2252 94.3381 65.9843C93.6966 66.7435 93.3605 67.9885 93.3605 69.6889C93.3605 71.5108 93.666 72.8165 94.3381 73.5757C94.9797 74.3652 95.8351 74.7296 96.8432 74.7296C97.607 74.7296 98.2485 74.4866 98.7984 74.0008C99.3483 73.5149 99.7455 72.7558 99.9899 71.693V71.6627ZM108.422 76.9462V64.9823H104.206V62.5531H115.509V64.9823H111.293V76.9462H108.422ZM116.426 69.8407C116.426 68.3832 116.64 67.1382 117.067 66.1362C117.403 65.4074 117.831 64.7394 118.381 64.1624C118.931 63.5855 119.542 63.1604 120.214 62.8567C121.1 62.4923 122.108 62.2798 123.269 62.2798C125.377 62.2798 127.027 62.9478 128.31 64.2535C129.562 65.5592 130.204 67.3812 130.204 69.7496C130.204 72.1181 129.593 73.8793 128.34 75.2154C127.088 76.5211 125.438 77.1891 123.33 77.1891C121.222 77.1891 119.542 76.5211 118.289 75.2458C117.037 73.9401 116.426 72.1485 116.426 69.8407ZM119.389 69.7496C119.389 71.3894 119.756 72.604 120.519 73.4542C121.253 74.3044 122.2 74.6992 123.361 74.6992C124.521 74.6992 125.438 74.2741 126.171 73.4542C126.904 72.6344 127.271 71.359 127.271 69.6889C127.271 68.0188 126.904 66.8042 126.202 65.9843C125.499 65.1645 124.552 64.7697 123.361 64.7697C122.169 64.7697 121.222 65.1949 120.489 66.0147C119.756 66.8346 119.42 68.0796 119.42 69.7193L119.389 69.7496ZM131.731 72.27L134.511 71.9967C134.695 72.938 135.031 73.6364 135.55 74.0919C136.069 74.517 136.741 74.7599 137.627 74.7599C138.544 74.7599 139.246 74.5474 139.705 74.1526C140.163 73.7579 140.407 73.3024 140.407 72.7558C140.407 72.4218 140.316 72.1181 140.102 71.8752C139.919 71.6323 139.552 71.4197 139.063 71.2375C138.727 71.1161 137.963 70.9035 136.772 70.5999C135.244 70.2051 134.145 69.7497 133.534 69.1727C132.648 68.3832 132.22 67.4115 132.22 66.288C132.22 65.5592 132.434 64.8608 132.831 64.2232C133.228 63.5855 133.839 63.0996 134.603 62.7656C135.367 62.4316 136.314 62.2798 137.413 62.2798C139.185 62.2798 140.53 62.6745 141.446 63.464C142.332 64.2535 142.821 65.3163 142.851 66.6524L139.98 66.7738C139.857 66.0451 139.583 65.4985 139.185 65.1949C138.788 64.8608 138.177 64.709 137.383 64.709C136.589 64.709 135.886 64.8912 135.428 65.2252C135.122 65.4378 134.97 65.7414 134.97 66.1058C134.97 66.4398 135.122 66.7435 135.397 66.9864C135.764 67.2901 136.65 67.6241 138.024 67.9581C139.43 68.2921 140.438 68.6261 141.11 68.9905C141.782 69.3549 142.301 69.8407 142.668 70.4481C143.035 71.0554 143.249 71.8449 143.249 72.7254C143.249 73.5453 143.035 74.3348 142.576 75.0332C142.118 75.762 141.477 76.2782 140.652 76.6426C139.827 77.007 138.788 77.1588 137.566 77.1588C135.764 77.1588 134.389 76.7337 133.442 75.9138C132.464 75.0636 131.915 73.849 131.731 72.2396V72.27ZM160.295 71.6627L163.075 72.5433C162.648 74.1222 161.945 75.2761 160.937 76.0353C159.959 76.7944 158.676 77.1891 157.149 77.1891C155.255 77.1891 153.697 76.5211 152.505 75.2458C151.283 73.9401 150.672 72.1485 150.672 69.9015C150.672 67.5026 151.283 65.6503 152.505 64.3143C153.727 62.9782 155.346 62.3405 157.332 62.3405C159.073 62.3405 160.479 62.8567 161.578 63.8891C162.22 64.4965 162.709 65.377 163.045 66.5309L160.204 67.2293C160.051 66.4702 159.684 65.8933 159.165 65.4681C158.646 65.043 157.974 64.8305 157.21 64.8305C156.171 64.8305 155.285 65.2252 154.644 65.9843C154.002 66.7435 153.666 67.9885 153.666 69.6889C153.666 71.5108 154.002 72.8165 154.644 73.5757C155.285 74.3652 156.141 74.7296 157.149 74.7296C157.912 74.7296 158.554 74.4866 159.104 74.0008C159.654 73.5149 160.051 72.7558 160.295 71.693V71.6627ZM164.97 69.8407C164.97 68.3832 165.183 67.1382 165.611 66.1362C165.947 65.4074 166.375 64.7394 166.925 64.1624C167.475 63.5855 168.086 63.1604 168.758 62.8567C169.644 62.4923 170.652 62.2798 171.813 62.2798C173.921 62.2798 175.57 62.9478 176.823 64.2535C178.075 65.5592 178.717 67.3812 178.717 69.7496C178.717 72.1181 178.106 73.8793 176.853 75.2154C175.601 76.5211 173.951 77.1891 171.843 77.1891C169.735 77.1891 168.055 76.5211 166.803 75.2458C165.55 73.9401 164.939 72.1485 164.939 69.8407H164.97ZM167.933 69.7496C167.933 71.3894 168.299 72.604 169.063 73.4542C169.796 74.3044 170.743 74.6992 171.904 74.6992C173.065 74.6992 173.982 74.2741 174.715 73.4542C175.448 72.6344 175.815 71.359 175.815 69.6889C175.815 68.0188 175.448 66.8042 174.745 65.9843C174.043 65.1645 173.065 64.7697 171.904 64.7697C170.743 64.7697 169.766 65.1949 169.033 66.0147C168.299 66.8346 167.933 68.0796 167.933 69.7193V69.7496ZM181.039 76.9462V62.5531H183.819L189.623 72.1485V62.5531H192.281V76.9462H189.409L183.697 67.5633V76.9462H181.039ZM194.633 72.27L197.414 71.9967C197.566 72.938 197.933 73.6364 198.422 74.0919C198.941 74.517 199.613 74.7599 200.499 74.7599C201.416 74.7599 202.118 74.5474 202.576 74.1526C203.035 73.7579 203.279 73.3024 203.279 72.7558C203.279 72.4218 203.187 72.1181 202.974 71.8752C202.79 71.6323 202.424 71.4197 201.935 71.2375C201.599 71.1161 200.835 70.9035 199.644 70.5999C198.116 70.2051 197.016 69.7497 196.405 69.1727C195.519 68.3832 195.092 67.4115 195.092 66.288C195.092 65.5592 195.306 64.8608 195.703 64.2232C196.1 63.5855 196.711 63.0996 197.475 62.7656C198.238 62.4316 199.185 62.2798 200.255 62.2798C202.027 62.2798 203.371 62.6745 204.287 63.464C205.173 64.2535 205.662 65.3163 205.693 66.6524L202.821 66.7738C202.699 66.0451 202.424 65.4985 202.027 65.1949C201.629 64.8608 201.018 64.709 200.224 64.709C199.43 64.709 198.727 64.8912 198.269 65.2252C197.963 65.4378 197.811 65.7414 197.811 66.1058C197.811 66.4398 197.963 66.7435 198.238 66.9864C198.605 67.2901 199.491 67.6241 200.866 67.9581C202.271 68.2921 203.31 68.6261 203.951 68.9905C204.593 69.3549 205.143 69.8407 205.509 70.4481C205.876 71.0554 206.09 71.8449 206.09 72.7254C206.09 73.5453 205.876 74.3348 205.418 75.0332C204.959 75.762 204.318 76.2782 203.493 76.6426C202.668 77.007 201.629 77.1588 200.407 77.1588C198.605 77.1588 197.23 76.7337 196.283 75.9138C195.306 75.0636 194.756 73.849 194.542 72.2396L194.633 72.27ZM211.803 76.9462V64.9823H207.587V62.5531H218.89V64.9823H214.674V76.9462H211.803ZM220.723 76.9462V62.5531H226.772C228.299 62.5531 229.399 62.6745 230.071 62.9478C230.774 63.1907 231.324 63.6766 231.721 64.3143C232.149 64.9823 232.332 65.7414 232.332 66.5917C232.332 67.6544 232.027 68.5654 231.385 69.2638C230.774 69.9622 229.827 70.4177 228.574 70.5999C229.185 70.9643 229.705 71.359 230.102 71.8145C230.499 72.2396 231.049 73.0291 231.721 74.1526L233.462 76.9462H230.041L227.963 73.8186C227.23 72.6951 226.711 71.9967 226.436 71.693C226.161 71.3894 225.886 71.2072 225.581 71.0857C225.275 70.9643 224.786 70.9339 224.145 70.9339H223.564V76.9462H220.693H220.723ZM223.595 68.6565H225.703C227.077 68.6565 227.933 68.5958 228.269 68.4743C228.605 68.3528 228.88 68.1403 229.063 67.867C229.247 67.5937 229.369 67.2293 229.369 66.8042C229.369 66.3184 229.247 65.9236 228.972 65.62C228.727 65.3163 228.361 65.1341 227.902 65.043C227.658 65.043 226.986 64.9823 225.794 64.9823H223.564V68.6261L223.595 68.6565ZM235.02 62.5834H237.892V70.3873C237.892 71.6323 237.923 72.4218 237.984 72.7862C238.106 73.3631 238.411 73.849 238.87 74.2133C239.328 74.5777 239.97 74.7599 240.764 74.7599C241.558 74.7599 242.2 74.5777 242.597 74.2437C243.025 73.9097 243.269 73.4846 243.33 72.9987C243.422 72.5129 243.452 71.693 243.452 70.5391V62.5834H246.324V70.1444C246.324 71.8752 246.232 73.0898 246.08 73.8186C245.927 74.5474 245.652 75.1243 245.224 75.6405C244.796 76.1264 244.247 76.5211 243.544 76.8248C242.841 77.1284 241.925 77.2499 240.794 77.2499C239.45 77.2499 238.411 77.0981 237.709 76.764C237.006 76.4604 236.456 76.0353 236.059 75.5191C235.662 75.0028 235.387 74.4866 235.265 73.9097C235.082 73.0898 234.99 71.8752 234.99 70.2659V62.5834H235.02ZM258.452 71.693L261.232 72.5736C260.805 74.1526 260.102 75.3065 259.094 76.0656C258.116 76.8248 256.833 77.2195 255.306 77.2195C253.411 77.2195 251.853 76.5515 250.662 75.2761C249.44 73.9704 248.829 72.1789 248.829 69.9318C248.829 67.533 249.44 65.6807 250.662 64.3446C251.884 63.0086 253.473 62.3709 255.489 62.3709C257.23 62.3709 258.635 62.8871 259.735 63.9195C260.377 64.5268 260.866 65.4074 261.202 66.5613L258.361 67.2597C258.208 66.5006 257.841 65.9236 257.322 65.4985C256.803 65.0734 256.13 64.8608 255.367 64.8608C254.328 64.8608 253.473 65.2556 252.8 66.0147C252.159 66.7738 251.823 68.0188 251.823 69.7193C251.823 71.5412 252.159 72.8469 252.8 73.606C253.442 74.3955 254.297 74.7599 255.306 74.7599C256.069 74.7599 256.711 74.517 257.261 74.0312C257.811 73.5453 258.208 72.7862 258.452 71.7234V71.693ZM266.884 76.9766V65.0127H262.668V62.5834H273.972V65.0127H269.756V76.9766H266.884ZM274.888 69.8711C274.888 68.4136 275.102 67.1686 275.53 66.1665C275.866 65.4378 276.293 64.7697 276.843 64.1928C277.393 63.6159 278.004 63.1907 278.676 62.8871C279.562 62.5227 280.57 62.3102 281.731 62.3102C283.839 62.3102 285.489 62.9782 286.772 64.2839C288.025 65.5896 288.666 67.4115 288.666 69.78C288.666 72.1485 288.055 73.9097 286.803 75.2458C285.55 76.5515 283.9 77.2195 281.792 77.2195C279.684 77.2195 278.004 76.5515 276.752 75.2761C275.499 73.9704 274.888 72.1789 274.888 69.8711ZM277.851 69.78C277.851 71.4197 278.218 72.6344 278.982 73.4846C279.715 74.3348 280.662 74.7296 281.823 74.7296C282.984 74.7296 283.9 74.3044 284.633 73.4846C285.367 72.6647 285.733 71.3894 285.733 69.7193C285.733 68.0492 285.367 66.8346 284.664 66.0147C283.961 65.1949 282.984 64.8001 281.823 64.8001C280.662 64.8001 279.684 65.2252 278.951 66.0451C278.218 66.8649 277.851 68.1099 277.851 69.7496V69.78ZM290.927 76.9766V62.5834H296.976C298.503 62.5834 299.603 62.7049 300.275 62.9782C300.978 63.2211 301.528 63.707 301.925 64.3446C302.352 65.0127 302.536 65.7718 302.536 66.622C302.536 67.6848 302.23 68.5958 301.589 69.2942C300.978 69.9926 300.031 70.4481 298.778 70.6302C299.389 70.9946 299.908 71.3894 300.306 71.8449C300.703 72.27 301.253 73.0595 301.925 74.183L303.666 76.9766H300.244L298.167 73.849C297.434 72.7254 296.915 72.027 296.67 71.7234C296.395 71.4197 296.12 71.2375 295.815 71.1161C295.509 70.9946 295.02 70.9643 294.379 70.9643H293.798V76.9766H290.927ZM293.798 68.6869H295.906C297.281 68.6869 298.137 68.6261 298.473 68.5047C298.809 68.3832 299.084 68.1707 299.267 67.8974C299.45 67.6241 299.572 67.2597 299.572 66.8346C299.572 66.3487 299.45 65.954 299.175 65.6503C298.931 65.3467 298.564 65.1645 298.106 65.0734C297.862 65.0734 297.189 65.0127 295.998 65.0127H293.768V68.6565L293.798 68.6869ZM305.255 76.9766V62.5834H315.794V65.0127H308.126V68.201H315.275V70.6302H308.126V74.5474H316.069V76.9766H305.255ZM317.78 72.3003L320.56 72.027C320.743 72.9684 321.079 73.6668 321.599 74.1223C322.118 74.5474 322.79 74.7903 323.676 74.7903C324.593 74.7903 325.295 74.5777 325.754 74.183C326.212 73.7882 326.456 73.3328 326.456 72.7862C326.456 72.4522 326.365 72.1485 326.151 71.9056C325.967 71.6627 325.601 71.4501 325.112 71.2679C324.776 71.1464 324.012 70.9339 322.821 70.6302C321.293 70.2355 320.194 69.78 319.583 69.2031C318.697 68.4136 318.269 67.4419 318.269 66.3184C318.269 65.5896 318.483 64.8912 318.88 64.2535C319.277 63.6159 319.888 63.13 320.652 62.796C321.416 62.462 322.363 62.3102 323.432 62.3102C325.234 62.3102 326.548 62.7049 327.464 63.4944C328.35 64.2839 328.839 65.3467 328.87 66.6827L325.998 66.8042C325.876 66.0754 325.601 65.5289 325.204 65.2252C324.807 64.8912 324.196 64.7394 323.401 64.7394C322.607 64.7394 321.904 64.9216 321.446 65.2556C321.141 65.4681 320.988 65.7718 320.988 66.1362C320.988 66.4702 321.141 66.7738 321.416 67.0168C321.782 67.3204 322.668 67.6544 324.043 67.9885C325.448 68.3225 326.456 68.6565 327.128 69.0209C327.801 69.3853 328.32 69.8711 328.686 70.4784C329.053 71.0857 329.267 71.8752 329.267 72.7558C329.267 73.5757 329.053 74.3652 328.595 75.0636C328.137 75.7923 327.495 76.3086 326.67 76.6729C325.845 77.0373 324.807 77.1891 323.585 77.1891C321.782 77.1891 320.407 76.764 319.46 75.9442C318.483 75.0939 317.933 73.8793 317.75 72.27L317.78 72.3003Z" fill="white"/>
<path fill-rule="evenodd" clip-rule="evenodd" d="M78.2688 1.45625V0.788212H90.0305C90.8859 0.788212 92.0774 0.727481 93.6049 0.60602C95.1324 0.484559 96.3238 0.423828 97.1487 0.423828C99.5621 0.423828 101.64 0.909673 103.289 1.88136C104.939 2.85305 106.191 4.12839 107.016 5.70739C107.841 7.28639 108.269 9.01721 108.299 10.8695C108.299 12.7825 107.872 14.5133 106.986 16.1227C106.1 17.732 104.756 19.0074 102.892 20.0094C101.059 20.9811 98.7678 21.4973 96.0489 21.5277C93.6354 21.5277 91.0998 20.9508 88.4725 19.7969V30.8802C88.4725 31.8823 88.7474 32.7629 89.3279 33.4916C89.8778 34.2204 90.6415 34.5848 91.6191 34.5848L92.7495 34.6759V35.3743L78.2688 35.2528V34.5848C78.4521 34.5848 78.6049 34.6152 78.6354 34.6759C79.4603 34.6152 80.3462 34.2508 81.2016 33.6131C82.0876 32.9754 82.5153 32.2467 82.5153 31.4268V3.91584C81.7515 2.85305 81.1711 2.18502 80.8045 1.94209C80.4379 1.69917 79.9185 1.51698 79.3381 1.45625H78.2383H78.2688ZM94.888 1.0615C90.611 1.0615 88.4725 2.30648 88.4725 4.79643V18.8859C89.5417 19.3718 90.3666 19.7058 90.9165 19.9487C91.4664 20.1613 92.1079 20.3435 92.8106 20.4953C93.5132 20.6471 94.3381 20.7078 95.1935 20.7078C96.5988 20.7078 97.8513 20.2827 98.9817 19.4325C100.081 18.5823 100.967 17.398 101.578 15.9101C102.189 14.4222 102.495 12.8129 102.495 11.0517C102.495 9.50305 102.22 7.92406 101.67 6.40579C101.12 4.88753 100.265 3.61218 99.1039 2.61013C97.9735 1.60807 96.5682 1.09186 94.888 1.09186V1.0615Z" fill="white"/>
<path fill-rule="evenodd" clip-rule="evenodd" d="M186.66 35.3742V34.6758C187.424 34.6758 188.035 34.524 188.523 34.3418C189.012 34.1596 189.379 33.9167 189.654 33.6434C189.929 33.4005 190.57 32.7324 191.548 31.7304C193.014 30.0603 194.114 28.4205 194.817 26.8112L206.67 -0.0317383H206.914L219.257 28.8153C219.99 30.4854 220.784 31.8822 221.639 33.0057C222.495 34.1292 223.564 34.6758 224.786 34.6758H225.55V35.3742H208.228V34.6758H209.114C210.275 34.6151 211.252 34.1596 212.016 33.3094C212.78 32.4591 213.177 31.4571 213.177 30.2425C213.177 29.3619 213.055 28.6331 212.78 28.0865L210.397 22.5904H197.23L195.275 27.297C194.847 28.3294 194.572 29.3619 194.45 30.455C194.817 33.0968 195.978 34.4936 197.963 34.6758H199.246V35.3742H186.568H186.66ZM204.165 7.71141L198.605 19.979H209.328L204.165 7.71141Z" fill="white"/>
<path fill-rule="evenodd" clip-rule="evenodd" d="M280.723 35.3742V34.6758C281.487 34.6758 282.098 34.524 282.587 34.3418C283.075 34.1596 283.442 33.9167 283.717 33.6434C283.992 33.4005 284.633 32.7324 285.611 31.7304C287.077 30.0603 288.177 28.4205 288.88 26.8112L300.733 -0.0317383H300.947L313.289 28.8153C314.022 30.4854 314.817 31.8822 315.672 33.0057C316.528 34.1292 317.597 34.6758 318.849 34.6758H319.613V35.3742H302.291V34.6758H303.177C304.338 34.6151 305.316 34.1596 306.08 33.3094C306.843 32.4591 307.24 31.4571 307.24 30.2425C307.24 29.3619 307.118 28.6331 306.843 28.0865L304.46 22.5904H291.293L289.338 27.297C288.91 28.3294 288.636 29.3619 288.513 30.455C288.88 33.0968 290.041 34.4936 292.027 34.6758H293.31V35.3742H280.631H280.723ZM298.228 7.71141L292.668 19.979H303.391L298.228 7.71141Z" fill="white"/>
<path fill-rule="evenodd" clip-rule="evenodd" d="M302.23 133.001V130.693H302.322C304.185 130.693 305.407 130.632 305.988 130.481C306.537 130.359 306.965 130.147 307.24 129.873C307.546 129.6 307.759 129.175 307.943 128.659C308.126 128.051 308.248 127.353 308.248 126.503V121.614C308.248 119.974 307.912 118.881 307.24 118.274C306.782 117.849 306.079 117.636 305.132 117.575C304.399 117.515 303.452 117.484 302.291 117.484H302.26V115.176H302.566C304.002 115.176 305.132 115.207 305.957 115.298C306.782 115.389 307.484 115.541 308.095 115.753C309.898 116.391 310.998 117.757 311.395 119.822C311.517 120.46 311.578 121.735 311.578 123.679C311.578 126.017 311.517 127.535 311.395 128.234C311.212 129.327 310.875 130.177 310.417 130.815C309.959 131.422 309.256 131.938 308.37 132.272C307.454 132.636 306.324 132.819 304.918 132.91C304.155 132.94 303.269 132.971 302.26 132.971L302.23 133.001ZM329.511 120.278H326.303C326.303 119.276 326.181 118.608 325.875 118.243C325.57 117.849 325.051 117.606 324.256 117.484C323.768 117.423 323.034 117.393 321.996 117.393C320.621 117.393 319.643 117.423 319.063 117.484C318.482 117.545 317.994 117.666 317.627 117.849C316.955 118.183 316.619 118.911 316.619 120.035C316.619 120.794 316.741 121.371 317.016 121.766C317.322 122.252 318.024 122.525 319.155 122.646C319.491 122.677 320.56 122.737 322.332 122.798C324.226 122.889 325.539 122.98 326.273 123.102C327.8 123.375 328.839 123.952 329.389 124.863C329.755 125.47 329.939 126.381 329.939 127.687C329.939 128.719 329.847 129.57 329.664 130.177C329.48 130.784 329.175 131.3 328.747 131.665C327.953 132.363 326.823 132.758 325.326 132.879C324.256 132.97 322.973 133.001 321.446 133.001C319.002 133.001 317.322 132.879 316.436 132.667C314.633 132.211 313.594 131.088 313.35 129.296C313.289 128.932 313.258 128.264 313.258 127.383H316.466V127.778C316.466 128.537 316.558 129.114 316.711 129.539C316.863 129.934 317.138 130.238 317.535 130.42C317.933 130.632 318.513 130.723 319.277 130.754C320.071 130.754 320.926 130.754 321.904 130.754C323.248 130.754 324.226 130.693 324.806 130.602C325.387 130.511 325.845 130.298 326.15 130.025C326.517 129.661 326.731 128.871 326.731 127.626C326.731 126.958 326.639 126.472 326.425 126.138C326.15 125.652 325.478 125.379 324.44 125.258C324.165 125.227 323.065 125.167 321.201 125.076C319.368 124.984 318.238 124.924 317.749 124.863C316.13 124.681 314.969 124.165 314.267 123.375C313.686 122.707 313.381 121.614 313.381 120.187C313.381 118.213 313.93 116.877 315.03 116.209C315.886 115.693 316.985 115.389 318.33 115.298C319.307 115.237 320.407 115.207 321.629 115.207C323.706 115.207 325.142 115.298 326.028 115.48C327.556 115.784 328.564 116.452 329.053 117.454C329.358 118.031 329.48 118.851 329.48 119.913V120.308L329.511 120.278ZM302.23 115.207V117.515C300.977 117.515 300.061 117.515 299.48 117.575C298.9 117.636 298.442 117.697 298.045 117.849C297.281 118.122 296.761 118.699 296.486 119.579C296.303 120.156 296.212 120.855 296.212 121.675V124.134C296.212 126.047 296.212 127.201 296.273 127.626C296.364 128.446 296.548 129.053 296.823 129.478C297.097 129.904 297.464 130.207 298.014 130.389C298.472 130.541 299.144 130.663 299.969 130.693C300.58 130.693 301.344 130.723 302.23 130.723V133.031H302.077C300.427 133.031 299.175 132.97 298.289 132.879C297.434 132.788 296.67 132.576 295.998 132.333C294.745 131.817 293.89 130.966 293.462 129.813C293.157 129.023 292.973 128.051 292.943 126.989C292.943 126.29 292.912 125.379 292.912 124.256C292.912 122.1 292.973 120.673 293.095 120.005C293.279 118.911 293.645 118.031 294.134 117.393C294.653 116.725 295.387 116.239 296.334 115.905C297.159 115.602 298.197 115.419 299.511 115.359C300.275 115.328 301.191 115.298 302.23 115.298V115.207ZM281.914 132.819V130.511H282.464C284.572 130.511 285.977 130.147 286.649 129.448C287.169 128.871 287.505 128.021 287.627 126.837C287.688 126.229 287.719 125.349 287.719 124.256C287.719 122.525 287.658 121.28 287.535 120.46C287.322 119.154 286.619 118.304 285.427 117.97C284.786 117.788 283.93 117.697 282.861 117.697H281.945V115.389H283.075C284.389 115.389 285.55 115.48 286.588 115.693C288.024 115.966 289.155 116.695 289.949 117.849C290.529 118.729 290.896 119.883 290.987 121.371C291.018 121.766 291.049 122.282 291.049 122.98C291.049 125.136 290.987 126.624 290.896 127.474C290.743 128.689 290.438 129.661 289.918 130.45C289.399 131.209 288.696 131.786 287.78 132.181C287.016 132.485 285.977 132.697 284.633 132.819C284.205 132.849 283.808 132.879 283.472 132.879H281.945L281.914 132.819ZM281.914 115.359V117.666H276.14V130.511H281.914V132.819H272.841V115.359H281.914ZM233.37 126.412V124.134H234.531C235.906 124.134 236.914 123.952 237.525 123.618C238.014 123.314 238.319 122.889 238.472 122.343C238.533 122.1 238.564 121.675 238.564 121.098C238.564 120.005 238.472 119.276 238.319 118.911C238.045 118.274 237.434 117.909 236.395 117.788C235.998 117.727 235.57 117.697 235.081 117.697H233.401V115.389H235.295C237.25 115.389 238.717 115.632 239.694 116.087C240.641 116.543 241.283 117.241 241.588 118.183C241.772 118.76 241.894 119.519 241.894 120.49C241.894 121.705 241.772 122.586 241.558 123.193C241.222 124.073 240.55 124.65 239.541 124.984C239.205 125.106 238.747 125.197 238.136 125.288V125.379C239.328 125.44 240.183 125.774 240.763 126.32C241.344 126.867 241.619 127.687 241.619 128.75V132.879H238.319V129.327C238.319 128.234 238.045 127.474 237.434 127.049C236.792 126.624 235.906 126.442 234.715 126.472H233.401L233.37 126.412ZM258.482 115.359H261.751V127.262C261.751 128.81 261.568 129.904 261.171 130.602C260.59 131.634 259.491 132.333 257.932 132.667C257.077 132.849 255.519 132.971 253.319 132.971C251.67 132.971 250.448 132.94 249.623 132.849C248.829 132.788 248.126 132.636 247.546 132.454C246.262 132.029 245.407 131.361 244.949 130.45C244.613 129.782 244.429 128.75 244.429 127.323V115.328H247.698V127.323C247.698 128.446 247.82 129.205 248.095 129.6C248.431 130.055 249.104 130.359 250.112 130.511C250.662 130.602 251.609 130.632 252.922 130.632C254.908 130.632 256.252 130.541 256.985 130.329C257.81 130.086 258.299 129.448 258.421 128.355C258.452 128.082 258.482 127.717 258.482 127.262V115.328V115.359ZM268.93 115.359V132.819H265.662V115.359H268.93ZM233.37 115.359V117.666H228.207V124.134H233.37V126.412H228.207V132.819H224.939V115.359H233.401H233.37ZM154.796 132.971V130.663H154.888C156.751 130.663 157.973 130.602 158.554 130.45C159.104 130.329 159.501 130.116 159.806 129.843C160.112 129.57 160.326 129.144 160.509 128.628C160.692 128.021 160.814 127.323 160.814 126.472V121.584C160.814 119.944 160.478 118.851 159.806 118.243C159.348 117.818 158.645 117.606 157.698 117.545C156.965 117.484 156.018 117.454 154.857 117.454H154.827V115.146H155.132C156.568 115.146 157.698 115.176 158.523 115.268C159.348 115.359 160.051 115.51 160.662 115.723C162.464 116.361 163.564 117.727 163.961 119.792C164.083 120.43 164.144 121.705 164.144 123.648C164.144 125.986 164.083 127.505 163.961 128.203C163.778 129.296 163.442 130.147 162.983 130.784C162.525 131.392 161.823 131.908 160.937 132.242C160.02 132.606 158.89 132.788 157.484 132.879C156.721 132.91 155.835 132.94 154.857 132.94L154.796 132.971ZM185.896 115.359V132.819H180.427L172.943 122.13C172.607 121.644 171.904 120.551 170.804 118.79L170.102 117.666H170.01V118.577C170.071 119.428 170.102 120.339 170.102 121.31V132.849H166.863V115.389H172.301L178.961 124.984C179.541 125.835 180.458 127.201 181.741 129.175L182.658 130.572H182.749V129.661C182.688 128.81 182.658 127.93 182.658 126.989V115.389H185.896V115.359ZM205.051 120.278H201.843C201.843 119.276 201.721 118.608 201.415 118.243C201.11 117.849 200.59 117.606 199.796 117.484C199.307 117.423 198.574 117.393 197.535 117.393C196.161 117.393 195.183 117.423 194.603 117.484C194.022 117.545 193.533 117.666 193.167 117.849C192.495 118.183 192.159 118.911 192.159 120.035C192.159 120.794 192.281 121.371 192.556 121.766C192.861 122.252 193.564 122.525 194.694 122.646C195.03 122.677 196.1 122.737 197.871 122.798C199.765 122.889 201.11 122.98 201.812 123.102C203.34 123.375 204.379 123.952 204.928 124.863C205.295 125.47 205.478 126.381 205.478 127.687C205.478 128.719 205.387 129.57 205.203 130.177C205.02 130.784 204.715 131.3 204.287 131.665C203.493 132.363 202.362 132.758 200.865 132.879C199.796 132.97 198.513 133.001 196.985 133.001C194.541 133.001 192.861 132.879 191.975 132.667C190.173 132.211 189.134 131.088 188.89 129.296C188.829 128.932 188.798 128.264 188.768 127.383H191.975V127.778C191.975 128.537 192.067 129.114 192.22 129.539C192.372 129.934 192.647 130.238 193.045 130.42C193.442 130.632 194.022 130.723 194.786 130.754C195.58 130.754 196.436 130.754 197.413 130.754C198.757 130.754 199.735 130.693 200.315 130.602C200.896 130.511 201.354 130.298 201.66 130.025C202.026 129.661 202.24 128.871 202.24 127.626C202.24 126.958 202.148 126.472 201.935 126.138C201.66 125.652 200.987 125.379 199.949 125.258C199.674 125.227 198.574 125.167 196.711 125.076C194.878 124.984 193.747 124.924 193.258 124.863C191.639 124.681 190.478 124.165 189.776 123.375C189.195 122.707 188.89 121.614 188.89 120.187C188.89 118.213 189.44 116.877 190.539 116.209C191.395 115.693 192.495 115.389 193.839 115.298C194.816 115.237 195.947 115.207 197.138 115.207C199.216 115.207 200.651 115.298 201.537 115.48C203.065 115.784 204.073 116.452 204.562 117.454C204.867 118.031 204.99 118.851 204.99 119.913V120.308L205.051 120.278ZM216.262 117.788V132.819H212.994V117.757H206.456V115.359H222.892V117.788H216.293H216.262ZM154.827 115.207V117.515C153.574 117.515 152.658 117.515 152.077 117.575C151.497 117.636 151.038 117.697 150.641 117.849C149.878 118.122 149.358 118.699 149.083 119.579C148.9 120.156 148.808 120.855 148.808 121.675V124.134C148.808 126.047 148.808 127.201 148.869 127.626C148.961 128.446 149.144 129.053 149.419 129.478C149.694 129.904 150.061 130.207 150.611 130.389C151.069 130.541 151.741 130.663 152.566 130.693C153.177 130.693 153.941 130.723 154.827 130.723V133.031H154.674C153.024 133.031 151.741 132.97 150.886 132.879C150.03 132.788 149.267 132.576 148.594 132.333C147.342 131.817 146.486 130.966 146.059 129.813C145.753 129.023 145.57 128.051 145.539 126.989C145.539 126.29 145.509 125.379 145.509 124.256C145.509 122.1 145.57 120.673 145.692 120.005C145.875 118.911 146.242 118.031 146.731 117.393C147.25 116.725 147.983 116.239 148.93 115.905C149.755 115.602 150.794 115.419 152.108 115.359C152.871 115.328 153.788 115.298 154.827 115.298V115.207ZM88.5944 133.001V130.693H88.6861C90.5496 130.693 91.7716 130.632 92.3521 130.481C92.902 130.359 93.3297 130.147 93.6046 129.873C93.9101 129.6 94.124 129.175 94.3073 128.659C94.4906 128.051 94.6128 127.353 94.6128 126.503V121.614C94.6128 119.974 94.2767 118.881 93.6046 118.274C93.1464 117.849 92.4437 117.636 91.4967 117.575C90.7635 117.515 89.8164 117.484 88.6555 117.484H88.625V115.176H88.9305C90.3663 115.176 91.4967 115.207 92.3215 115.298C93.1464 115.389 93.849 115.541 94.46 115.753C96.2625 116.391 97.3623 117.757 97.7594 119.822C97.8816 120.46 97.9427 121.735 97.9427 123.679C97.9427 126.017 97.8816 127.535 97.7594 128.234C97.5761 129.327 97.2401 130.177 96.7818 130.815C96.3236 131.422 95.6209 131.938 94.735 132.272C93.8185 132.636 92.6576 132.819 91.2828 132.91C90.5191 132.94 89.6637 132.971 88.6555 132.971L88.5944 133.001ZM115.875 120.278H112.668C112.668 119.276 112.546 118.608 112.24 118.243C111.935 117.849 111.415 117.606 110.621 117.484C110.132 117.423 109.399 117.393 108.36 117.393C106.985 117.393 106.008 117.423 105.427 117.484C104.847 117.545 104.358 117.666 103.992 117.849C103.319 118.183 102.983 118.911 102.983 120.035C102.983 120.794 103.106 121.371 103.381 121.766C103.686 122.252 104.389 122.525 105.519 122.646C105.855 122.677 106.924 122.737 108.696 122.798C110.59 122.889 111.935 122.98 112.668 123.102C114.195 123.375 115.234 123.952 115.784 124.863C116.15 125.47 116.334 126.381 116.334 127.687C116.334 128.719 116.242 129.57 116.059 130.177C115.875 130.784 115.57 131.3 115.142 131.665C114.348 132.363 113.218 132.758 111.721 132.879C110.651 132.97 109.368 133.001 107.841 133.001C105.397 133.001 103.717 132.879 102.831 132.667C101.028 132.211 99.9895 131.088 99.7451 129.296C99.6841 128.932 99.6535 128.264 99.6229 127.383H102.831V127.778C102.831 128.537 102.922 129.114 103.075 129.539C103.228 129.934 103.503 130.238 103.9 130.42C104.297 130.632 104.878 130.723 105.641 130.754C106.436 130.754 107.291 130.754 108.269 130.754C109.613 130.754 110.59 130.693 111.171 130.602C111.751 130.511 112.21 130.298 112.515 130.025C112.882 129.661 113.095 128.871 113.095 127.626C113.095 126.958 113.004 126.472 112.79 126.138C112.515 125.652 111.843 125.379 110.804 125.258C110.529 125.227 109.429 125.167 107.566 125.076C105.733 124.984 104.603 124.924 104.114 124.863C102.495 124.681 101.334 124.165 100.631 123.375C100.051 122.707 99.7451 121.614 99.7451 120.187C99.7451 118.213 100.295 116.877 101.395 116.209C102.25 115.693 103.35 115.389 104.694 115.298C105.672 115.237 106.802 115.207 107.994 115.207C110.071 115.207 111.507 115.298 112.393 115.48C113.92 115.784 114.928 116.452 115.417 117.454C115.723 118.031 115.845 118.851 115.845 119.913V120.308L115.875 120.278ZM140.743 126.776H144.012C144.012 127.08 144.012 127.292 144.012 127.383C144.012 128.962 143.829 130.055 143.523 130.693C142.912 131.847 141.66 132.545 139.766 132.819C138.941 132.91 137.383 132.971 135.091 132.971C133.289 132.971 131.914 132.91 131.028 132.758C130.142 132.606 129.379 132.333 128.706 131.938C127.454 131.149 126.721 129.782 126.507 127.808C126.385 126.594 126.324 124.954 126.324 122.828C126.324 121.007 126.446 119.67 126.66 118.79C126.965 117.575 127.79 116.664 129.134 116.027C130.051 115.602 131.303 115.328 132.892 115.237C133.625 115.207 134.847 115.176 136.588 115.176C138.452 115.176 139.766 115.268 140.529 115.48C142.271 115.936 143.279 116.998 143.584 118.638C143.645 119.002 143.706 119.762 143.737 120.885H140.468C140.468 120.642 140.468 120.49 140.468 120.399C140.468 119.671 140.377 119.124 140.224 118.729C140.071 118.365 139.857 118.061 139.521 117.879C139.002 117.575 137.902 117.423 136.191 117.423C133.656 117.423 132.036 117.545 131.273 117.818C130.57 118.061 130.142 118.608 129.898 119.397C129.776 119.853 129.715 120.581 129.715 121.553C129.715 123.405 129.715 125.015 129.776 126.412C129.806 128.355 130.234 129.57 131.028 130.025C131.639 130.389 133.014 130.602 135.152 130.602C137.78 130.602 139.399 130.389 139.979 129.964C140.468 129.6 140.713 128.841 140.713 127.687C140.713 127.474 140.713 127.14 140.682 126.715L140.743 126.776ZM16.2523 120.278H13.0445C13.0445 119.276 12.9223 118.608 12.6168 118.243C12.3113 117.849 11.792 117.606 10.9977 117.484C10.5089 117.423 9.77569 117.393 8.73699 117.393C7.36225 117.393 6.38465 117.423 5.8042 117.484C5.22376 117.545 4.73496 117.666 4.36836 117.849C3.69626 118.183 3.36021 118.911 3.36021 120.035C3.36021 120.794 3.48241 121.371 3.75736 121.766C4.06286 122.252 4.76551 122.525 5.89585 122.646C6.2319 122.677 7.30115 122.737 9.07304 122.798C10.9671 122.889 12.3113 122.98 13.0445 123.102C14.572 123.375 15.6107 123.952 16.1606 124.863C16.5272 125.47 16.7105 126.381 16.7105 127.687C16.7105 128.719 16.6189 129.57 16.4356 130.177C16.2523 130.784 15.9468 131.3 15.5191 131.665C14.7248 132.363 13.5944 132.758 12.0975 132.879C11.0282 132.97 9.74514 133.001 8.21765 133.001C5.77365 133.001 4.09341 132.879 3.20746 132.667C1.40502 132.211 0.366322 131.088 0.121923 129.296C0.0608233 128.932 0.0302734 128.264 0.0302734 127.383H3.23801V127.778C3.23801 128.537 3.32966 129.114 3.48241 129.539C3.63516 129.934 3.91011 130.238 4.30726 130.42C4.70441 130.632 5.28486 130.723 6.0486 130.754C6.8429 130.754 7.6983 130.754 8.67589 130.754C10.0201 130.754 10.9977 130.693 11.5781 130.602C12.1586 130.511 12.6168 130.298 12.9223 130.025C13.2889 129.661 13.5028 128.871 13.5028 127.626C13.5028 126.958 13.4111 126.472 13.1973 126.138C12.9223 125.652 12.2502 125.379 11.2115 125.258C10.9366 125.227 9.86734 125.167 7.97325 125.076C6.14025 124.984 5.00991 124.924 4.52111 124.863C2.90196 124.681 1.74107 124.165 1.03842 123.375C0.457972 122.707 0.152473 121.614 0.152473 120.187C0.152473 118.213 0.702371 116.877 1.80217 116.209C2.65756 115.693 3.75736 115.389 5.10156 115.298C6.07915 115.237 7.2095 115.207 8.40095 115.207C10.4783 115.207 11.9447 115.298 12.8001 115.48C14.3276 115.784 15.3358 116.452 15.8246 117.454C16.1301 118.031 16.2523 118.851 16.2523 119.913V120.308V120.278ZM88.5639 115.207V117.515C87.3113 117.515 86.3948 117.515 85.8144 117.575C85.2339 117.636 84.7451 117.697 84.3785 117.849C83.6148 118.122 83.0955 118.699 82.8205 119.579C82.6372 120.156 82.5455 120.855 82.5455 121.675V124.134C82.5455 126.047 82.5455 127.201 82.6067 127.626C82.6983 128.446 82.8816 129.053 83.1565 129.478C83.4315 129.904 83.8286 130.207 84.348 130.389C84.8062 130.541 85.4783 130.663 86.3032 130.693C86.9142 130.693 87.6779 130.723 88.5639 130.723V133.031H88.4111C86.7614 133.031 85.4783 132.97 84.6229 132.879C83.7675 132.788 83.0038 132.576 82.3317 132.333C81.0792 131.817 80.2238 130.966 79.7961 129.813C79.4906 129.023 79.3073 128.051 79.2767 126.989C79.2767 126.29 79.2767 125.379 79.2767 124.256C79.2767 122.1 79.3378 120.673 79.46 120.005C79.6433 118.911 80.0099 118.031 80.4987 117.393C81.0181 116.725 81.7513 116.239 82.6983 115.905C83.5231 115.602 84.5618 115.419 85.8755 115.359C86.6392 115.328 87.5557 115.298 88.5944 115.298L88.5639 115.207ZM33.6352 115.359H36.904V127.262C36.904 128.81 36.7207 129.904 36.3236 130.602C35.7431 131.634 34.6433 132.333 33.0853 132.667C32.2299 132.849 30.6718 132.971 28.4722 132.971C26.8225 132.971 25.6005 132.94 24.7757 132.849C23.9814 132.788 23.2787 132.636 22.6983 132.454C21.4152 132.029 20.5598 131.361 20.1016 130.45C19.7655 129.782 19.5822 128.75 19.5822 127.323V115.328H22.851V127.323C22.851 128.446 22.9732 129.205 23.2482 129.6C23.5842 130.055 24.2563 130.359 25.2645 130.511C25.8144 130.602 26.7614 130.632 28.0751 130.632C30.0608 130.632 31.405 130.541 32.1382 130.329C32.9631 130.086 33.4519 129.448 33.5741 128.355C33.6046 128.082 33.6352 127.717 33.6352 127.262V115.328V115.359ZM43.4722 117.636V122.798H53.8592V124.863H43.4722V130.541H54.4091V132.819H40.2034V115.359H54.3785V117.636H43.5028H43.4722ZM76.4967 115.359V132.819H71.0282L63.5435 122.13C63.2075 121.644 62.5048 120.551 61.405 118.79L60.7024 117.666H60.6107V118.577C60.6718 119.428 60.7024 120.339 60.7024 121.31V132.849H57.4641V115.389H62.902L69.5618 124.984C70.1423 125.835 71.0588 127.201 72.3419 129.175L73.2584 130.572H73.35V129.661C73.2889 128.81 73.2584 127.93 73.2584 126.989V115.389H76.4967V115.359ZM70.6616 111.047L72.1891 111.776C71.2726 113.021 70.2339 113.658 69.1036 113.658C68.5231 113.658 67.7289 113.476 66.7818 113.081C65.8653 112.717 65.2238 112.535 64.8572 112.535C64.4906 112.535 64.1545 112.656 63.9101 112.899C63.7879 113.021 63.6046 113.233 63.4213 113.506L61.8633 112.808C62.1993 112.322 62.5048 111.958 62.7798 111.715C63.3602 111.199 64.0629 110.925 64.8572 110.925C65.3765 110.925 66.1097 111.107 67.0873 111.502C68.0649 111.897 68.7675 112.079 69.1341 112.079C69.684 112.079 70.2339 111.745 70.7533 111.047H70.6616Z" fill="white"/>
<path fill-rule="evenodd" clip-rule="evenodd" d="M3.48267 108.373C123.758 83.8072 232.424 90.2447 326.487 107.249C228.177 92.4006 119.45 89.2426 3.48267 108.373Z" fill="white"/>
</g>
<defs>
<clipPath id="clip0_16427_820">
<rect width="330" height="133" fill="white"/>
</clipPath>
</defs>
</svg>
